<svg xmlns="http://www.w3.org/2000/svg" viewBox="0 0 409.24 409.24">
  <path d="M373.59,57.78c32.43-.05,64.43-.1,96.42-.06A12.83,12.83,0,0,1,483.21,71q.09,46.5,0,93c0,8.24-6,13.7-15,14-12,.34-24,0-35.91,1.24-49.86,5.36-92.51,26.18-128,61.46-19.26,19.14-38.86,38-57.07,58.13-28.85,31.85-45.56,69.74-50.85,112.36-1.64,13.17-1.56,26.57-2,39.87-.33,10.36-5,15.38-15.26,15.39-30,0-60-.24-90,.15-9.75.13-15.2-6.87-15.12-15.08.28-29.83.09-59.66.12-89.49,0-10.53,5.35-15.95,16.08-15.74,23.06.45,45.84-1.23,68.16-7.45,33.18-9.24,62.88-25.05,87.72-48.88C268.69,268.2,291.23,246.32,312,223c30.36-34.12,46.43-74.92,50-120.47.76-9.62.62-19.31.66-29C362.75,65.89,365.63,60.37,373.59,57.78Z" transform="translate(-74.02 -57.7)"/>
  <path d="M395.15,301V246.71H441c.1,1.24.29,2.5.29,3.76q0,64.47,0,129c0,21.22-16.46,37.77-37.58,37.82-43.15.11-86.3,0-129.45,0H271v-46H395.15Z" transform="translate(-74.02 -57.7)"/>
  <path d="M296.07,143v9.88H171.62V277.33H126.16c-.08-1.62-.22-3.23-.22-4.83q0-64.21,0-128.42c0-19.9,16.34-36.92,36.11-37C206,106.88,250,107,294,107c.48,0,1,.11,2.1.25Z" transform="translate(-74.02 -57.7)"/>
</svg>
